<svg width="67.000000" height="39.000000" viewBox="0 0 67 39" fill="none" xmlns="http://www.w3.org/2000/svg" xmlns:xlink="http://www.w3.org/1999/xlink">
	<desc>
			Created with Pixso.
	</desc>
	<defs/>
	<rect id="Rectangle" rx="19.500000" width="67.000000" height="39.000000" fill="#F3603C" fill-opacity="1.000000"/>
	<rect id="Rectangle" rx="19.500000" width="67.000000" height="39.000000" stroke="#979797" stroke-opacity="0" stroke-width="0.000000"/>
	<path id="02" d="M28.8681 25.172C27.4174 25.172 26.3348 24.6973 25.6201 23.748C24.9161 22.7987 24.5641 21.5453 24.5641 19.988L24.5641 18.676C24.5641 17.1187 24.9161 15.8707 25.6201 14.932C26.3348 13.9933 27.4174 13.524 28.8681 13.524C30.3294 13.524 31.4121 13.9987 32.1161 14.948C32.8308 15.8867 33.1881 17.1293 33.1881 18.676L33.1881 19.988C33.1881 21.5453 32.8308 22.7987 32.1161 23.748C31.4014 24.6973 30.3188 25.172 28.8681 25.172ZM28.8681 23.252C29.5081 23.252 29.9721 22.9853 30.2601 22.452C30.5588 21.908 30.7081 21.1133 30.7081 20.068L30.7081 18.58C30.7081 17.5453 30.5588 16.7667 30.2601 16.244C29.9721 15.7107 29.5081 15.444 28.8681 15.444C28.2388 15.444 27.7748 15.7107 27.4761 16.244C27.1881 16.7667 27.0441 17.5453 27.0441 18.58L27.0441 20.068C27.0441 21.1133 27.1881 21.908 27.4761 22.452C27.7748 22.9853 28.2388 23.252 28.8681 23.252ZM34.5199 23.06L36.2959 21.508L37.0479 20.884C37.7519 20.308 38.3012 19.8387 38.6959 19.476C39.0906 19.1133 39.4159 18.7293 39.6719 18.324C39.9279 17.908 40.0559 17.4867 40.0559 17.06C40.0559 16.6013 39.9172 16.212 39.6399 15.892C39.3626 15.572 38.9412 15.412 38.3759 15.412C37.6826 15.412 37.2186 15.6147 36.9839 16.02C36.7599 16.4147 36.6479 16.836 36.6479 17.284L36.6479 17.476L34.4719 17.476C34.4719 16.676 34.6266 15.9773 34.9359 15.38C35.2559 14.7827 35.7039 14.324 36.2799 14.004C36.8666 13.6733 37.5546 13.508 38.3439 13.508C39.1439 13.508 39.8266 13.6627 40.3919 13.972C40.9679 14.2707 41.3999 14.6813 41.6879 15.204C41.9866 15.7267 42.1359 16.3027 42.1359 16.932C42.1359 17.5613 42.0026 18.1373 41.7359 18.66C41.4692 19.172 41.1492 19.62 40.7759 20.004C40.4026 20.3773 39.9226 20.8093 39.3359 21.3L39.0799 21.524L37.4319 22.932L37.4319 23.012L42.2319 23.012L42.2319 24.948L34.5359 24.948L34.5199 23.06Z" fill="#FFFFFF" fill-opacity="1.000000" fill-rule="evenodd"/>
</svg>
