<svg width="67.000000" height="39.000000" viewBox="0 0 67 39" fill="none" xmlns="http://www.w3.org/2000/svg" xmlns:xlink="http://www.w3.org/1999/xlink">
	<desc>
			Created with Pixso.
	</desc>
	<defs/>
	<rect id="Rectangle" y="0.000002" rx="19.500000" width="67.000000" height="39.000000" fill="#F3603C" fill-opacity="1.000000"/>
	<rect id="Rectangle" y="0.000002" rx="19.500000" width="67.000000" height="39.000000" stroke="#979797" stroke-opacity="0" stroke-width="0.000000"/>
	<path id="03" d="M28.8525 25.172C27.4018 25.172 26.3191 24.6973 25.6045 23.748C24.9005 22.7987 24.5485 21.5453 24.5485 19.988L24.5485 18.676C24.5485 17.1187 24.9005 15.8707 25.6045 14.932C26.3191 13.9933 27.4018 13.524 28.8525 13.524C30.3138 13.524 31.3965 13.9987 32.1005 14.948C32.8152 15.8867 33.1725 17.1293 33.1725 18.676L33.1725 19.988C33.1725 21.5453 32.8152 22.7987 32.1005 23.748C31.3858 24.6973 30.3032 25.172 28.8525 25.172ZM28.8525 23.252C29.4925 23.252 29.9565 22.9853 30.2445 22.452C30.5431 21.908 30.6925 21.1133 30.6925 20.068L30.6925 18.58C30.6925 17.5453 30.5431 16.7667 30.2445 16.244C29.9565 15.7107 29.4925 15.444 28.8525 15.444C28.2231 15.444 27.7591 15.7107 27.4605 16.244C27.1725 16.7667 27.0285 17.5453 27.0285 18.58L27.0285 20.068C27.0285 21.1133 27.1725 21.908 27.4605 22.452C27.7591 22.9853 28.2231 23.252 28.8525 23.252ZM38.3603 25.092C37.0803 25.092 36.0936 24.7773 35.4003 24.148C34.7069 23.5187 34.2963 22.7187 34.1683 21.748L36.4083 21.748C36.5256 22.1853 36.7496 22.5267 37.0803 22.772C37.4109 23.0173 37.8323 23.14 38.3443 23.14C38.9309 23.14 39.3843 22.9907 39.7043 22.692C40.0349 22.3827 40.2003 21.9933 40.2003 21.524C40.2003 21.0227 40.0243 20.6333 39.6723 20.356C39.3309 20.068 38.8936 19.924 38.3603 19.924L37.3523 19.924L37.3523 18.244L38.3763 18.244C38.8563 18.244 39.2509 18.1213 39.5603 17.876C39.8696 17.62 40.0243 17.2627 40.0243 16.804C40.0243 16.3453 39.8643 15.9773 39.5443 15.7C39.2349 15.4227 38.8243 15.284 38.3123 15.284C37.8216 15.284 37.4269 15.4067 37.1283 15.652C36.8403 15.8973 36.6536 16.2333 36.5683 16.66L34.3923 16.66C34.5309 15.7533 34.9149 14.996 35.5443 14.388C36.1736 13.7693 37.1016 13.46 38.3283 13.46C39.2243 13.46 39.9656 13.6253 40.5523 13.956C41.1389 14.276 41.5603 14.6867 41.8163 15.188C42.0829 15.6893 42.2163 16.2013 42.2163 16.724C42.2163 17.2573 42.0883 17.7 41.8323 18.052C41.5869 18.404 41.3203 18.6653 41.0323 18.836C40.7549 19.0067 40.5789 19.092 40.5043 19.092L40.5043 19.188C40.7283 19.2627 40.9576 19.364 41.1923 19.492C41.4269 19.6093 41.6776 19.8547 41.9443 20.228C42.2109 20.6013 42.3443 21.1027 42.3443 21.732C42.3443 22.3293 42.2003 22.884 41.9123 23.396C41.6243 23.908 41.1816 24.3187 40.5843 24.628C39.9869 24.9373 39.2456 25.092 38.3603 25.092Z" fill="#FFFFFF" fill-opacity="1.000000" fill-rule="evenodd"/>
</svg>
