<svg width="67.000000" height="39.000000" viewBox="0 0 67 39" fill="none" xmlns="http://www.w3.org/2000/svg" xmlns:xlink="http://www.w3.org/1999/xlink">
	<desc>
			Created with Pixso.
	</desc>
	<defs/>
	<rect id="Rectangle" rx="19.500000" width="67.000000" height="39.000000" fill="#F3603C" fill-opacity="1.000000"/>
	<rect id="Rectangle" rx="19.500000" width="67.000000" height="39.000000" stroke="#979797" stroke-opacity="0" stroke-width="0.000000"/>
	<path id="01" d="M30.4228 25.172C28.9721 25.172 27.8895 24.6973 27.1748 23.748C26.4708 22.7987 26.1188 21.5453 26.1188 19.988L26.1188 18.676C26.1188 17.1187 26.4708 15.8707 27.1748 14.932C27.8895 13.9933 28.9721 13.524 30.4228 13.524C31.8841 13.524 32.9668 13.9987 33.6708 14.948C34.3855 15.8867 34.7428 17.1293 34.7428 18.676L34.7428 19.988C34.7428 21.5453 34.3855 22.7987 33.6708 23.748C32.9561 24.6973 31.8735 25.172 30.4228 25.172ZM30.4228 23.252C31.0628 23.252 31.5268 22.9853 31.8148 22.452C32.1135 21.908 32.2628 21.1133 32.2628 20.068L32.2628 18.58C32.2628 17.5453 32.1135 16.7667 31.8148 16.244C31.5268 15.7107 31.0628 15.444 30.4228 15.444C29.7935 15.444 29.3295 15.7107 29.0308 16.244C28.7428 16.7667 28.5988 17.5453 28.5988 18.58L28.5988 20.068C28.5988 21.1133 28.7428 21.908 29.0308 22.452C29.3295 22.9853 29.7935 23.252 30.4228 23.252ZM43.0346 23.012L43.0346 24.948L36.3466 24.948L36.3466 23.012L38.7466 23.012L38.7466 16.388L38.6826 16.388L36.3306 18.532L36.3306 15.892L38.6986 13.748L40.8746 13.748L40.8746 23.012L43.0346 23.012Z" fill="#FFFFFF" fill-opacity="1.000000" fill-rule="evenodd"/>
</svg>
