<svg width="154.000000" height="20.000000" viewBox="0 0 154 20" fill="none" xmlns="http://www.w3.org/2000/svg" xmlns:xlink="http://www.w3.org/1999/xlink">
	<desc>
			Created with Pixso.
	</desc>
	<defs/>
	<path id="Path" d="M18.8958 0L1.10419 0C0.494141 0 0 0.494141 0 1.10413L0 18.8967C0 19.5059 0.494141 20 1.10419 20L10.6833 20L10.6833 12.255L8.07666 12.255L8.07666 9.23669L10.6833 9.23669L10.6833 7.01086C10.6833 4.42749 12.2608 3.02087 14.5659 3.02087C15.67 3.02087 16.6183 3.10339 16.895 3.14001L16.895 5.83997L15.2967 5.84082C14.0433 5.84082 13.8008 6.43665 13.8008 7.31006L13.8008 9.23755L16.79 9.23755L16.4008 12.2559L13.8008 12.2559L13.8008 20L18.8975 20C19.5059 20 20 19.5059 20 18.8959L20 1.10413C20 0.494141 19.5059 0 18.8958 0Z" fill="#FFFFFF" fill-opacity="1.000000" fill-rule="nonzero"/>
	<path id="Shape" d="M143.333 0C140.617 0 140.277 0.0117188 139.211 0.0600586C135.579 0.226685 133.561 2.2417 133.394 5.87671C133.345 6.94421 133.333 7.28418 133.333 10C133.333 12.7158 133.345 13.0566 133.393 14.1233C133.56 17.755 135.575 19.7733 139.21 19.9399C140.277 19.9883 140.617 20 143.333 20C146.049 20 146.39 19.9883 147.457 19.9399C151.085 19.7733 153.108 17.7583 153.272 14.1233C153.322 13.0566 153.333 12.7158 153.333 10C153.333 7.28418 153.322 6.94421 153.273 5.87744C153.11 2.24915 151.092 0.227539 147.457 0.060791C146.39 0.0117188 146.049 0 143.333 0ZM147.375 1.86084C146.32 1.8125 146.003 1.80249 143.333 1.80249C140.663 1.80249 140.347 1.8125 139.292 1.85999C136.58 1.98328 135.317 3.27002 135.193 5.95911C135.146 7.01416 135.135 7.32996 135.135 10C135.135 12.6708 135.145 12.9867 135.193 14.0409C135.317 16.725 136.576 18.0167 139.292 18.1409C140.347 18.1892 140.663 18.1992 143.333 18.1992C146.005 18.1992 146.32 18.1892 147.375 18.1409C150.087 18.0175 151.35 16.7291 151.474 14.0416C151.522 12.9875 151.532 12.6716 151.532 10.0009C151.532 7.33081 151.522 7.01416 151.474 5.95996C151.351 3.27002 150.085 1.98413 147.375 1.86084ZM147.471 4.66248C147.471 4 148.008 3.46252 148.672 3.46252C149.334 3.46252 149.871 4 149.871 4.66248C149.871 5.32495 149.334 5.86255 148.672 5.86255C148.008 5.86255 147.471 5.32495 147.471 4.66248ZM138.198 10C138.198 7.16418 140.497 4.86499 143.333 4.86499C146.169 4.86499 148.468 7.16418 148.468 10C148.468 12.8367 146.169 15.1359 143.333 15.1359C140.497 15.1359 138.198 12.8358 138.198 10ZM143.333 13.3334C141.492 13.3334 140 11.8417 140 10C140 8.15918 141.492 6.66663 143.333 6.66663C145.174 6.66663 146.667 8.15918 146.667 10C146.667 11.8417 145.174 13.3334 143.333 13.3334Z" clip-rule="evenodd" fill="#FFFFFF" fill-opacity="1.000000" fill-rule="evenodd"/>
	<path id="Path" d="M110 0C104.478 0 100 4.47668 100 10C100 14.2367 102.636 17.855 106.356 19.3116C106.268 18.5209 106.189 17.3075 106.391 16.4442C106.573 15.6633 107.563 11.4734 107.563 11.4734C107.563 11.4734 107.264 10.8741 107.264 9.98828C107.264 8.59839 108.07 7.56006 109.073 7.56006C109.926 7.56006 110.338 8.20081 110.338 8.96838C110.338 9.82581 109.792 11.1083 109.51 12.2975C109.274 13.2925 110.009 14.105 110.991 14.105C112.768 14.105 114.134 12.2308 114.134 9.52588C114.134 7.13171 112.414 5.45752 109.958 5.45752C107.113 5.45752 105.443 7.59167 105.443 9.79663C105.443 10.6559 105.773 11.5784 106.187 12.0784C106.268 12.1775 106.28 12.265 106.256 12.3658L105.978 13.4991C105.934 13.6825 105.833 13.7217 105.643 13.6333C104.394 13.0516 103.613 11.2258 103.613 9.75916C103.613 6.60498 105.905 3.70752 110.221 3.70752C113.69 3.70752 116.386 6.18005 116.386 9.48328C116.386 12.9301 114.213 15.7034 111.197 15.7034C110.183 15.7034 109.231 15.1775 108.905 14.5551L108.282 16.9325C108.056 17.8016 107.447 18.8909 107.038 19.5542C107.975 19.8434 108.969 20 110 20C115.522 20 120 15.5225 120 10C120 4.47668 115.522 0 110 0Z" fill="#FFFFFF" fill-opacity="1.000000" fill-rule="nonzero"/>
	<path id="Path" d="M86.6666 3.79749C85.9308 4.12415 85.14 4.34412 84.3099 4.44324C85.1575 3.93579 85.8083 3.13159 86.1141 2.17334C85.3217 2.64331 84.4432 2.98499 83.5083 3.16907C82.7607 2.37158 81.6932 1.87329 80.5133 1.87329C77.8641 1.87329 75.9175 4.34497 76.5157 6.91077C73.1066 6.73999 70.0833 5.10657 68.0591 2.62415C66.9841 4.46826 67.5016 6.88074 69.3283 8.10242C68.6566 8.08081 68.0233 7.89661 67.4708 7.58911C67.4258 9.48999 68.7883 11.2683 70.7616 11.6642C70.1841 11.8208 69.5516 11.8574 68.9083 11.7341C69.4299 13.3641 70.9449 14.5499 72.7416 14.5833C71.0166 15.9358 68.8433 16.5399 66.6666 16.2833C68.4825 17.4475 70.64 18.1266 72.9567 18.1266C80.575 18.1266 84.8792 11.6925 84.6191 5.92163C85.4208 5.34241 86.1166 4.62 86.6666 3.79749Z" fill="#FFFFFF" fill-opacity="1.000000" fill-rule="nonzero"/>
	<path id="Shape" d="M43.3333 0C37.8108 0 33.3333 4.47754 33.3333 10C33.3333 15.5225 37.8108 20 43.3333 20C48.8558 20 53.3333 15.5225 53.3333 10C53.3333 4.47754 48.8558 0 43.3333 0ZM47.0341 14.0767C45.2825 14.1967 41.3808 14.1967 39.6317 14.0767C37.735 13.9467 37.5142 13.0183 37.5 10C37.5142 6.97583 37.7375 6.05334 39.6317 5.92334C41.3808 5.80334 45.2833 5.80334 47.0341 5.92334C48.9316 6.05334 49.1517 6.98169 49.1666 10C49.1517 13.0242 48.9291 13.9467 47.0341 14.0767ZM45.7642 9.9967L41.6666 8.04834L41.6666 11.9517L45.7642 9.9967Z" clip-rule="evenodd" fill="#FFFFFF" fill-opacity="1.000000" fill-rule="evenodd"/>
</svg>
